# xmcd
#
# Track frame offsets:
# 150
# 16331
# 30727
# 46547
# 58790
#
# Disc length: 1003 seconds
#
#
# Revision: 0
# Processed by: cddbd v1.5.1PL2 Copyright (c) Steve Scherf et al.
# Submitted via: FreeRIP 2.944 
#
DISCID=3303e905
DTITLE=Bagster - Demos
DYEAR=2005
DGENRE=Ska
TTITLE0=Beast Of Beauty
TTITLE1=Delete The Obsolete
TTITLE2=Devil In Me
TTITLE3=Boy Hurricane
TTITLE4=The Feat
EXTD=
EXTT0=
EXTT1=
EXTT2=
EXTT3=
EXTT4=
PLAYORDER=
